0
SECTION
2
HEADER
9
$INSUNITS
70
4
9
$ACADVER
1
AC1014
9
$HANDSEED
5
FFFF
0
ENDSEC
0
SECTION
2
TABLES
0
TABLE
2
VPORT
5
8
100
AcDbSymbolTable
0
ENDTAB
0
TABLE
2
LTYPE
5
5
100
AcDbSymbolTable
0
LTYPE
5
14
100
AcDbSymbolTableRecord
100
AcDbLinetypeTableRecord
2
BYBLOCK
70
0
0
LTYPE
5
15
100
AcDbSymbolTableRecord
100
AcDbLinetypeTableRecord
2
BYLAYER
70
0
0
LTYPE
5
16
100
AcDbSymbolTableRecord
100
AcDbLinetypeTableRecord
2
DASHED
70
0
3
Dashed __ __ __ __ __ __ __ __ __ __ __ __ __ _
72
65
73
2
40
0.75
49
0.5
74
0
49
-0.25
74
0
0
ENDTAB
0
TABLE
2
LAYER
5
2
100
AcDbSymbolTable
70
2
0
LAYER
5
50
100
AcDbSymbolTableRecord
100
AcDbLayerTableRecord
2
0
70
0
62
7
6
CONTINUOUS
0
ENDTAB
0
TABLE
2
STYLE
5
3
100
AcDbSymbolTable
70
1
0
STYLE
5
11
100
AcDbSymbolTableRecord
100
AcDbTextStyleTableRecord
2
STANDARD
70
0
0
ENDTAB
0
TABLE
2
VIEW
5
6
100
AcDbSymbolTable
70
0
0
ENDTAB
0
TABLE
2
UCS
5
7
100
AcDbSymbolTable
70
0
0
ENDTAB
0
TABLE
2
APPID
5
9
100
AcDbSymbolTable
70
2
0
APPID
5
12
100
AcDbSymbolTableRecord
100
AcDbRegAppTableRecord
2
ACAD
70
0
0
ENDTAB
0
TABLE
2
DIMSTYLE
5
A
100
AcDbSymbolTable
70
1
0
ENDTAB
0
TABLE
2
BLOCK_RECORD
5
1
100
AcDbSymbolTable
70
1
0
BLOCK_RECORD
5
1F
100
AcDbSymbolTableRecord
100
AcDbBlockTableRecord
2
*MODEL_SPACE
0
BLOCK_RECORD
5
1B
100
AcDbSymbolTableRecord
100
AcDbBlockTableRecord
2
*PAPER_SPACE
0
ENDTAB
0
ENDSEC
0
SECTION
2
BLOCKS
0
BLOCK
5
20
100
AcDbEntity
100
AcDbBlockBegin
2
*MODEL_SPACE
0
ENDBLK
5
21
100
AcDbEntity
100
AcDbBlockEnd
0
BLOCK
5
1C
100
AcDbEntity
100
AcDbBlockBegin
2
*PAPER_SPACE
0
ENDBLK
5
1D
100
AcDbEntity
100
AcDbBlockEnd
0
ENDSEC
0
SECTION
2
ENTITIES
0
LWPOLYLINE
5
100
100
AcDbEntity
8
0
100
AcDbPolyline
90
5
70
1
43
0.0
10
-41.800000000000075
20
65.00000001160484
10
49.999999999999993
20
65.00000001160484
10
50.000000000000107
20
-64.99999998839499
10
-50.000000000000128
20
-64.99999998839499
10
-50.000000000000007
20
65.00000000310331
0
LINE
5
101
100
AcDbEntity
8
0
100
AcDbLine
10
-150
20
0
30
0
11
150
21
0
31
0
6
DASHED
0
LINE
5
102
100
AcDbEntity
8
0
100
AcDbLine
10
0
20
100
30
0
11
0
21
-150
31
0
6
DASHED
0
CIRCLE
5
103
100
AcDbEntity
8
0
100
AcDbCircle
10
-34.000000000000036
20
3.9999999884114494
30
0
40
3.5
210
0
220
0
230
1
0
CIRCLE
5
104
100
AcDbEntity
8
0
100
AcDbCircle
10
0.99999999999996603
20
3.9999999884114463
30
0
40
3.5
210
0
220
0
230
1
0
LINE
5
105
100
AcDbEntity
8
0
100
AcDbLine
10
-34.000000000000036
20
3.9999999884114601
30
0
11
0.99999999999996603
21
3.9999999884114463
31
0
6
DASHED
0
LWPOLYLINE
5
106
100
AcDbEntity
8
0
100
AcDbPolyline
90
4
70
1
43
0.0
10
-12.000000000000032
20
33.99999998841146
10
-8.0000000000000338
20
33.99999998841146
10
-8.0000000000000338
20
17.99999998841146
10
-12.000000000000032
20
17.99999998841146
0
CIRCLE
5
107
100
AcDbEntity
8
0
100
AcDbCircle
10
-10.000000000000034
20
30.99999998841146
30
0
40
0.92500000000000016
210
0
220
0
230
1
0
CIRCLE
5
108
100
AcDbEntity
8
0
100
AcDbCircle
10
-10.000000000000034
20
20.99999998841146
30
0
40
0.92500000000000016
210
0
220
0
230
1
0
CIRCLE
5
109
100
AcDbEntity
8
0
100
AcDbCircle
10
-34.000000000000036
20
3.9999999884114494
30
0
40
1.4250000000000003
210
0
220
0
230
1
0
CIRCLE
5
110
100
AcDbEntity
8
0
100
AcDbCircle
10
0.99999999999996603
20
3.9999999884114463
30
0
40
1.4250000000000003
210
0
220
0
230
1
0
LWPOLYLINE
5
111
100
AcDbEntity
8
0
100
AcDbPolyline
90
4
70
1
43
0.0
10
-48.000000000000121
20
62.99999998841146
10
48.000000000000014
20
62.99999998841146
10
48.000000000000036
20
-62.999999988411503
10
-48.000000000000121
20
-62.999999988411481
0
LINE
5
112
100
AcDbEntity
8
0
100
AcDbLine
10
-41.799999999999983
20
69.100000011604848
30
0
11
-41.800000000000075
21
65.00000001160484
31
0
0
LINE
5
113
100
AcDbEntity
8
0
100
AcDbLine
10
-50.000000000000071
20
65.00000001160484
30
0
11
-49.999999999999986
21
69.100000011604848
31
0
0
CIRCLE
5
114
100
AcDbEntity
8
0
100
AcDbCircle
10
-45.90000000000002
20
69.100000011604848
30
0
40
2.1000000000000028
210
0
220
0
230
1
0
ARC
5
115
100
AcDbEntity
8
0
100
AcDbCircle
10
-45.90000000000002
20
69.100000011604848
30
0
40
4.1000000000000369
210
-0
220
0
230
1
100
AcDbArc
50
0
51
180
0
ARC
5
116
100
AcDbEntity
8
0
100
AcDbCircle
10
45.90000000000002
20
69.100000011604848
30
0
40
4.0999999999999659
210
-0
220
0
230
1
100
AcDbArc
50
0
51
180
0
CIRCLE
5
117
100
AcDbEntity
8
0
100
AcDbCircle
10
45.90000000000002
20
69.100000011604848
30
0
40
2.1000000000000028
210
0
220
0
230
1
0
LINE
5
118
100
AcDbEntity
8
0
100
AcDbLine
10
41.799999999999983
20
69.100000011604848
30
0
11
41.800000000000075
21
65.00000001160484
31
0
0
LINE
5
119
100
AcDbEntity
8
0
100
AcDbLine
10
50.000000000000071
20
65.00000001160484
30
0
11
49.999999999999986
21
69.100000011604848
31
0
0
ARC
5
120
100
AcDbEntity
8
0
100
AcDbCircle
10
-45.90000000000002
20
-69.100000011604848
30
0
40
4.0999999999999659
210
0
220
0
230
1
100
AcDbArc
50
-180
51
0
0
LINE
5
121
100
AcDbEntity
8
0
100
AcDbLine
10
-50.000000000000071
20
-65.00000001160484
30
0
11
-49.999999999999986
21
-69.100000011604848
31
0
0
LINE
5
122
100
AcDbEntity
8
0
100
AcDbLine
10
-41.799999999999983
20
-69.100000011604848
30
0
11
-41.800000000000068
21
-65.00000001160484
31
0
0
CIRCLE
5
123
100
AcDbEntity
8
0
100
AcDbCircle
10
-45.90000000000002
20
-69.100000011604848
30
0
40
2.1000000000000028
210
0
220
0
230
1
0
ARC
5
124
100
AcDbEntity
8
0
100
AcDbCircle
10
45.900000000000034
20
-69.100000011604848
30
0
40
4.1000000000000369
210
0
220
0
230
1
100
AcDbArc
50
-180
51
0
0
CIRCLE
5
125
100
AcDbEntity
8
0
100
AcDbCircle
10
45.900000000000034
20
-69.100000011604848
30
0
40
2.1000000000000028
210
0
220
0
230
1
0
LINE
5
126
100
AcDbEntity
8
0
100
AcDbLine
10
50.000000000000071
20
-65.00000001160484
30
0
11
50
21
-69.100000011604848
31
0
0
LINE
5
127
100
AcDbEntity
8
0
100
AcDbLine
10
41.799999999999997
20
-69.100000011604848
30
0
11
41.800000000000068
21
-65.00000001160484
31
0
0
LWPOLYLINE
5
128
100
AcDbEntity
8
0
100
AcDbPolyline
90
4
70
1
43
0.0
10
-26.000000000000036
20
9.9999999884114761
10
-7.0000000000000338
20
9.9999999884114761
10
-7.0000000000000338
20
-2.0000000115885248
10
-26.000000000000036
20
-2.0000000115885248
0
LWPOLYLINE
5
129
100
AcDbEntity
8
0
100
AcDbPolyline
90
4
70
1
43
0.0
10
-35
20
55
10
35
20
54.99999999999833
10
20
20
40
10
-25
20
40
0
LWPOLYLINE
5
130
100
AcDbEntity
8
0
100
AcDbPolyline
90
3
70
1
43
0.0
10
-40
20
25
10
-25
20
25
10
-40
20
50
0
LWPOLYLINE
5
131
100
AcDbEntity
8
0
100
AcDbPolyline
90
4
70
1
43
0.0
10
40
20
50
10
10
20
25
10
20
20
10
10
40
20
25
0
LWPOLYLINE
5
132
100
AcDbEntity
8
0
100
AcDbPolyline
90
3
70
1
43
0.0
10
15
20
-15
10
40
20
-15
10
40
20
-50
0
CIRCLE
5
133
100
AcDbEntity
8
0
100
AcDbCircle
10
-18.000000000000121
20
-20.999999988411489
30
0
40
1.6500000000000008
210
0
220
0
230
1
0
CIRCLE
5
134
100
AcDbEntity
8
0
100
AcDbCircle
10
-18.0000005747589
20
-35.999999988411474
30
0
40
1.6500000000000001
210
0
220
0
230
1
0
CIRCLE
5
135
100
AcDbEntity
8
0
100
AcDbCircle
10
-18.00000027200533
20
-55.999999988411474
30
0
40
1.6500000000000001
210
0
220
0
230
1
0
CIRCLE
5
136
100
AcDbEntity
8
0
100
AcDbCircle
10
-18.000000234161149
20
-45.999999988411474
30
0
40
1.6500000000000001
210
0
220
0
230
1
0
LWPOLYLINE
5
137
100
AcDbEntity
8
0
100
AcDbPolyline
90
3
70
1
43
0.0
10
-40
20
-15
10
-40
20
-55
10
-26.000000000000036
20
-15
0
LWPOLYLINE
5
138
100
AcDbEntity
8
0
100
AcDbPolyline
90
3
70
1
43
0.0
10
-5
20
-15
10
-5
20
-55
10
30
20
-55
0
ENDSEC
0
SECTION
2
OBJECTS
0
DICTIONARY
5
C
100
AcDbDictionary
3
ACAD_GROUP
350
D
3
ACAD_MLINESTYLE
350
17
0
DICTIONARY
5
D
100
AcDbDictionary
0
DICTIONARY
5
1A
330
C
100
AcDbDictionary
0
DICTIONARY
5
17
100
AcDbDictionary
0
ENDSEC
0
EOF
